<svg height="512" viewBox="0 0 128 128" width="512" xmlns="http://www.w3.org/2000/svg" xmlns:xlink="http://www.w3.org/1999/xlink"><linearGradient id="a" gradientUnits="userSpaceOnUse" x1="91.613" x2="26.618" y1="94.675" y2="29.679"><stop offset="0" stop-color="#b373f0"/><stop offset="1" stop-color="#01ebcd"/></linearGradient><path d="m40.428 25.41a1.75 1.75 0 0 1 1.19-2.17l.958-.279a1.75 1.75 0 1 1 .98 3.359l-.957.28a1.783 1.783 0 0 1 -.492.07 1.751 1.751 0 0 1 -1.679-1.26zm58.3 18.105a1.751 1.751 0 0 0 -1.612 1.879l2.674 34.787c-2.166 3.048-14.833 19.846-35.79 27.443a71.982 71.982 0 0 1 -17.445-9.318l11.2-12.9a1.75 1.75 0 1 0 -2.643-2.3l-19.4 22.338-15.159 2 2-15.159 41.731-36.251a1.75 1.75 0 1 0 -2.3-2.642l-24.313 21.125 2.917-37.953 23.412-6.846 15.253 4.461a1.75 1.75 0 0 0 .982-3.36l-15.744-4.6a1.745 1.745 0 0 0 -.982 0l-25.065 7.33a1.749 1.749 0 0 0 -1.253 1.546l-3.281 42.689-4.551 3.953c-.509-.665-.905-1.207-1.15-1.553l3.882-50.511 4.047-1.184a1.75 1.75 0 1 0 -.982-3.359l-5.208 1.523a1.751 1.751 0 0 0 -1.254 1.547l-4.022 52.333a1.751 1.751 0 0 0 .283 1.1c.031.047.627.943 1.756 2.407l-6.96 6.046a1.743 1.743 0 0 0 -.587 1.093l-2.381 18.078a1.756 1.756 0 0 0 1.963 1.964l18.078-2.381a1.749 1.749 0 0 0 1.093-.588l6.335-7.293a75.368 75.368 0 0 0 19.167 10.177 1.754 1.754 0 0 0 1.162 0c24.486-8.614 37.9-28.654 38.463-29.5a1.752 1.752 0 0 0 .284-1.1l-2.721-35.407a1.761 1.761 0 0 0 -1.878-1.614zm-43.792 51.7a1.75 1.75 0 0 0 .632 2.392 64.964 64.964 0 0 0 7.761 3.856 1.745 1.745 0 0 0 .67.133 1.763 1.763 0 0 0 .67-.133c15.194-6.293 25.38-17.739 29.055-22.363a1.751 1.751 0 0 0 -2.743-2.176c-3.449 4.342-12.914 14.988-26.981 21.025a61.821 61.821 0 0 1 -6.67-3.364 1.752 1.752 0 0 0 -2.393.633zm6.956-14.57.578-.665a1.749 1.749 0 0 0 -2.64-2.3l-.579.665a1.75 1.75 0 1 0 2.641 2.3zm47.777-50.745-3.837 3.837a1.749 1.749 0 0 1 -2.475 0l-.584-.584-15.553 16.913.932.932a1.749 1.749 0 0 1 0 2.475l-1.99 1.99 5.316 5.315a1.752 1.752 0 0 1 0 2.475l-4.826 4.824a1.748 1.748 0 0 1 -2.474 0l-6.078-6.077-11.413 13.131a1.75 1.75 0 0 1 -2.643-2.3l11.571-13.316-2.328-2.328-36.71 36.713a1.749 1.749 0 0 1 -2.477-2.477l36.71-36.71-10.888-10.891a1.75 1.75 0 0 1 0-2.474l4.825-4.826a1.8 1.8 0 0 1 2.475 0l16.465 16.466.753-.753-9.913-9.913a1.75 1.75 0 0 1 2.473-2.474l.932.932 13.5-12.415-27.432-8.024-14.958 4.375a1.75 1.75 0 0 1 -.982-3.36l15.449-4.518a1.745 1.745 0 0 1 .982 0l29.952 8.762.4-.371-.584-.584a1.749 1.749 0 0 1 0-2.475l3.841-3.839a5.341 5.341 0 0 1 7.548 0l4.022 4.022a5.343 5.343 0 0 1 -.001 7.547zm-21.9 32.115-21.785-21.781-2.35 2.351 21.781 21.78zm12.531-31.338-2.977-2.977-16.912 15.557 4.332 4.332zm7.436-4.55a1.828 1.828 0 0 0 -.538-1.3l-4.021-4.021a1.884 1.884 0 0 0 -2.6 0l-2.6 2.6 6.621 6.621 2.6-2.6a1.828 1.828 0 0 0 .534-1.3z" fill="url(#a)"/></svg>